<svg id="Layer_3" data-name="Layer 3" xmlns="http://www.w3.org/2000/svg" viewBox="0 0 446.75 87.83"><defs><style>.cls-1{fill:#e8eddf;}.cls-2{fill:#f5cb5c;}.cls-3{fill:#242423;}.cls-4{opacity:0.58;}</style></defs><title>prohandy logo-white</title><path class="cls-1" d="M62.94,28.58c0,16.05-12.67,28.63-29.36,29.14V44.38c8.1-.49,14.5-6.73,14.5-15.8A18,18,0,0,0,44.71,18V.73A30,30,0,0,1,57,10.66,30.34,30.34,0,0,1,62.94,28.58Z" transform="translate(-0.78 -0.73)"/><path class="cls-2" d="M32.5,10.89a4.5,4.5,0,0,0-3.25-.49A4.4,4.4,0,0,0,27,11.64a4,4,0,0,0-.68.92,4.47,4.47,0,0,0-.55,1.49,2.38,2.38,0,0,0,0,.46V88h-.44v.52H14V11.78a2,2,0,0,0-.34-.06,10.08,10.08,0,0,0-1.84-.16,10.89,10.89,0,0,0-2.06.19,11,11,0,0,0-8.18,6.74A13,13,0,0,1,.78,14,13.22,13.22,0,0,1,14,.73h11.3a4.53,4.53,0,0,0,2.25,3.91A4.54,4.54,0,0,0,33.74,3,4.39,4.39,0,0,0,34.33.91a.55.55,0,0,0,0-.18h6V15.2h-5.6c0-.22,0-.44,0-.64a5.83,5.83,0,0,0-.21-1.09A4.51,4.51,0,0,0,32.5,10.89Z" transform="translate(-0.78 -0.73)"/><path class="cls-3" d="M36.88,15.2v.12l-.28-.12Z" transform="translate(-0.78 -0.73)"/><path class="cls-1" d="M111.52,41.11a25.1,25.1,0,0,0-25-25H69.9V88H82.13V65.12H85.9L99.28,88h12.24L96.65,63.18A23.76,23.76,0,0,0,111.52,41.11Zm-25,13H82.13V27.05h4.34c7.1,0,12.81,6.29,12.81,14.06A12.55,12.55,0,0,1,86.47,54.14Z" transform="translate(-0.78 -0.73)"/><path class="cls-1" d="M149,15.61c-19.91,0-32.94,18.42-32.94,36.47s13,36.47,32.94,36.47,32.92-18.4,32.92-36.47S168.8,15.61,149,15.61ZM149,77c-11.44,0-20.7-11.09-20.7-24.93s9.26-25,20.7-25,20.69,11.2,20.69,25S160.45,77,149,77Z" transform="translate(-0.78 -0.73)"/><path class="cls-1" d="M223,16.07v39H199.89v-39H187.65V88h12.24V66H223V88h12.13V16.07Z" transform="translate(-0.78 -0.73)"/><path class="cls-1" d="M274.32,16.07h-9.5L240.82,88h12.24l4.79-14.63h23.33L286.1,88h12.11Zm-12.81,46.3,8-23.89,8,23.89Z" transform="translate(-0.78 -0.73)"/><path class="cls-1" d="M337.66,16.07V62l-21.5-46H303.93V88h12.23V42.14L337.66,88h12.11V16.07Z" transform="translate(-0.78 -0.73)"/><path class="cls-1" d="M371,16.07H356.63V88H371C390.82,88,404,70.15,404,52.08S390.82,16.07,371,16.07ZM371,77h-2.17v-50H371c11.44,0,20.7,11.2,20.7,25S382.48,77,371,77Z" transform="translate(-0.78 -0.73)"/><path class="cls-1" d="M435.3,16.07,424,41.45,412.77,16.07H400.53l17.39,36V88h12.24V52.08l17.37-36Z" transform="translate(-0.78 -0.73)"/><path class="cls-4" d="M237.07,23.88V24l-.28-.13Z" transform="translate(-0.78 -0.73)"/></svg>